<svg width="421" height="33" viewBox="0 0 421 33" fill="none" xmlns="http://www.w3.org/2000/svg">
<path d="M0.399227 21.337V17.849L10.9592 3.64101H16.3992L6.06323 17.849L3.53523 17.113H21.1672V21.337H0.399227ZM12.4632 26.041V21.337L12.6232 17.113V12.921H17.5192V26.041H12.4632ZM43.1402 26.425C39.9616 26.425 37.4762 25.5397 35.6842 23.769C33.8922 21.9983 32.9962 19.4703 32.9962 16.185V3.64101H38.1802V15.993C38.1802 18.1263 38.6176 19.6623 39.4922 20.601C40.3669 21.5397 41.5936 22.009 43.1722 22.009C44.7509 22.009 45.9776 21.5397 46.8522 20.601C47.7269 19.6623 48.1642 18.1263 48.1642 15.993V3.64101H53.2842V16.185C53.2842 19.4703 52.3882 21.9983 50.5962 23.769C48.8042 25.5397 46.3189 26.425 43.1402 26.425ZM68.231 26.297C66.7803 26.297 65.511 25.977 64.423 25.337C63.335 24.697 62.4816 23.7263 61.863 22.425C61.2656 21.1023 60.967 19.4383 60.967 17.433C60.967 15.4063 61.255 13.7423 61.831 12.441C62.407 11.1397 63.239 10.169 64.327 9.52901C65.415 8.88902 66.7163 8.56902 68.231 8.56902C69.8523 8.56902 71.303 8.94235 72.583 9.68901C73.8843 10.4143 74.9083 11.4383 75.655 12.761C76.423 14.0837 76.807 15.641 76.807 17.433C76.807 19.2463 76.423 20.8143 75.655 22.137C74.9083 23.4597 73.8843 24.4837 72.583 25.209C71.303 25.9343 69.8523 26.297 68.231 26.297ZM58.055 32.249V8.82501H62.823V12.345L62.727 17.465L63.047 22.553V32.249H58.055ZM67.367 22.201C68.199 22.201 68.935 22.009 69.575 21.625C70.2363 21.241 70.759 20.697 71.143 19.993C71.5483 19.2677 71.751 18.4143 71.751 17.433C71.751 16.4303 71.5483 15.577 71.143 14.873C70.759 14.169 70.2363 13.625 69.575 13.241C68.935 12.857 68.199 12.665 67.367 12.665C66.535 12.665 65.7883 12.857 65.127 13.241C64.4656 13.625 63.943 14.169 63.559 14.873C63.175 15.577 62.983 16.4303 62.983 17.433C62.983 18.4143 63.175 19.2677 63.559 19.993C63.943 20.697 64.4656 21.241 65.127 21.625C65.7883 22.009 66.535 22.201 67.367 22.201ZM88.4687 26.297C86.6127 26.297 84.9594 25.9237 83.5087 25.177C82.0581 24.409 80.9167 23.353 80.0847 22.009C79.2741 20.665 78.8687 19.1397 78.8687 17.433C78.8687 15.705 79.2741 14.1797 80.0847 12.857C80.9167 11.513 82.0581 10.4677 83.5087 9.72101C84.9594 8.95302 86.6127 8.56902 88.4687 8.56902C90.2821 8.56902 91.8607 8.95302 93.2047 9.72101C94.5487 10.4677 95.5407 11.545 96.1807 12.953L92.3087 15.033C91.8607 14.2223 91.2954 13.625 90.6127 13.241C89.9514 12.857 89.2261 12.665 88.4367 12.665C87.5834 12.665 86.8154 12.857 86.1327 13.241C85.4501 13.625 84.9061 14.169 84.5007 14.873C84.1167 15.577 83.9247 16.4303 83.9247 17.433C83.9247 18.4357 84.1167 19.289 84.5007 19.993C84.9061 20.697 85.4501 21.241 86.1327 21.625C86.8154 22.009 87.5834 22.201 88.4367 22.201C89.2261 22.201 89.9514 22.0197 90.6127 21.657C91.2954 21.273 91.8607 20.665 92.3087 19.833L96.1807 21.945C95.5407 23.3317 94.5487 24.409 93.2047 25.177C91.8607 25.9237 90.2821 26.297 88.4687 26.297ZM107.028 26.297C105.194 26.297 103.562 25.913 102.132 25.145C100.724 24.377 99.6042 23.3317 98.7722 22.009C97.9616 20.665 97.5562 19.1397 97.5562 17.433C97.5562 15.705 97.9616 14.1797 98.7722 12.857C99.6042 11.513 100.724 10.4677 102.132 9.72101C103.562 8.95302 105.194 8.56902 107.028 8.56902C108.842 8.56902 110.463 8.95302 111.892 9.72101C113.322 10.4677 114.442 11.5023 115.252 12.825C116.063 14.1477 116.468 15.6837 116.468 17.433C116.468 19.1397 116.063 20.665 115.252 22.009C114.442 23.3317 113.322 24.377 111.892 25.145C110.463 25.913 108.842 26.297 107.028 26.297ZM107.028 22.201C107.86 22.201 108.607 22.009 109.268 21.625C109.93 21.241 110.452 20.697 110.836 19.993C111.22 19.2677 111.412 18.4143 111.412 17.433C111.412 16.4303 111.22 15.577 110.836 14.873C110.452 14.169 109.93 13.625 109.268 13.241C108.607 12.857 107.86 12.665 107.028 12.665C106.196 12.665 105.45 12.857 104.788 13.241C104.127 13.625 103.594 14.169 103.188 14.873C102.804 15.577 102.612 16.4303 102.612 17.433C102.612 18.4143 102.804 19.2677 103.188 19.993C103.594 20.697 104.127 21.241 104.788 21.625C105.45 22.009 106.196 22.201 107.028 22.201ZM141.853 8.56902C143.218 8.56902 144.424 8.84635 145.469 9.40101C146.536 9.93435 147.368 10.7663 147.965 11.897C148.584 13.0063 148.893 14.4357 148.893 16.185V26.041H143.901V16.953C143.901 15.5663 143.613 14.5423 143.037 13.881C142.461 13.2197 141.65 12.889 140.605 12.889C139.88 12.889 139.229 13.0597 138.653 13.401C138.077 13.721 137.629 14.2117 137.309 14.873C136.989 15.5343 136.829 16.377 136.829 17.401V26.041H131.837V16.953C131.837 15.5663 131.549 14.5423 130.973 13.881C130.418 13.2197 129.618 12.889 128.573 12.889C127.848 12.889 127.197 13.0597 126.621 13.401C126.045 13.721 125.597 14.2117 125.277 14.873C124.957 15.5343 124.797 16.377 124.797 17.401V26.041H119.805V8.82501H124.573V13.529L123.677 12.153C124.274 10.9797 125.117 10.0943 126.205 9.49701C127.314 8.87835 128.573 8.56902 129.981 8.56902C131.56 8.56902 132.936 8.97435 134.109 9.78502C135.304 10.5743 136.093 11.7903 136.477 13.433L134.717 12.953C135.293 11.609 136.21 10.5423 137.469 9.75302C138.749 8.96368 140.21 8.56902 141.853 8.56902ZM153.367 26.041V8.82501H158.359V26.041H153.367ZM155.863 6.42501C154.946 6.42501 154.199 6.15835 153.623 5.62502C153.047 5.09168 152.759 4.43035 152.759 3.64101C152.759 2.85168 153.047 2.19035 153.623 1.65701C154.199 1.12368 154.946 0.857014 155.863 0.857014C156.781 0.857014 157.527 1.11301 158.103 1.62502C158.679 2.11568 158.967 2.75568 158.967 3.54502C158.967 4.37701 158.679 5.07035 158.103 5.62502C157.549 6.15835 156.802 6.42501 155.863 6.42501ZM173.456 8.56902C174.822 8.56902 176.038 8.84635 177.104 9.40101C178.192 9.93435 179.046 10.7663 179.664 11.897C180.283 13.0063 180.592 14.4357 180.592 16.185V26.041H175.6V16.953C175.6 15.5663 175.291 14.5423 174.672 13.881C174.075 13.2197 173.222 12.889 172.112 12.889C171.323 12.889 170.608 13.0597 169.968 13.401C169.35 13.721 168.859 14.2223 168.496 14.905C168.155 15.5877 167.984 16.4623 167.984 17.529V26.041H162.992V8.82501H167.76V13.593L166.864 12.153C167.483 11.001 168.368 10.1157 169.52 9.49701C170.672 8.87835 171.984 8.56902 173.456 8.56902ZM193.338 32.505C191.717 32.505 190.149 32.3023 188.634 31.897C187.141 31.513 185.893 30.9263 184.89 30.137L186.874 26.553C187.6 27.1503 188.517 27.6197 189.626 27.961C190.757 28.3237 191.866 28.505 192.954 28.505C194.725 28.505 196.005 28.1103 196.794 27.321C197.605 26.5317 198.01 25.3583 198.01 23.801V21.209L198.33 16.889L198.266 12.537V8.82501H203.002V23.161C203.002 26.361 202.17 28.7183 200.506 30.233C198.842 31.7477 196.453 32.505 193.338 32.505ZM192.57 25.209C190.97 25.209 189.52 24.8677 188.218 24.185C186.938 23.481 185.904 22.5103 185.114 21.273C184.346 20.0143 183.962 18.553 183.962 16.889C183.962 15.2037 184.346 13.7423 185.114 12.505C185.904 11.2463 186.938 10.2757 188.218 9.59302C189.52 8.91035 190.97 8.56902 192.57 8.56902C194.021 8.56902 195.301 8.86768 196.41 9.46502C197.52 10.041 198.384 10.9477 199.002 12.185C199.621 13.401 199.93 14.969 199.93 16.889C199.93 18.7877 199.621 20.3557 199.002 21.593C198.384 22.809 197.52 23.7157 196.41 24.313C195.301 24.9103 194.021 25.209 192.57 25.209ZM193.562 21.113C194.437 21.113 195.216 20.9423 195.898 20.601C196.581 20.2383 197.114 19.737 197.498 19.097C197.882 18.457 198.074 17.721 198.074 16.889C198.074 16.0357 197.882 15.2997 197.498 14.681C197.114 14.041 196.581 13.5503 195.898 13.209C195.216 12.8463 194.437 12.665 193.562 12.665C192.688 12.665 191.909 12.8463 191.226 13.209C190.544 13.5503 190 14.041 189.594 14.681C189.21 15.2997 189.018 16.0357 189.018 16.889C189.018 17.721 189.21 18.457 189.594 19.097C190 19.737 190.544 20.2383 191.226 20.601C191.909 20.9423 192.688 21.113 193.562 21.113ZM216.711 26.041V8.82501H221.479V13.689L220.807 12.281C221.319 11.065 222.141 10.1477 223.271 9.52901C224.402 8.88902 225.778 8.56902 227.399 8.56902V13.177C227.186 13.1557 226.994 13.145 226.823 13.145C226.653 13.1237 226.471 13.113 226.279 13.113C224.914 13.113 223.805 13.5077 222.951 14.297C222.119 15.065 221.703 16.2703 221.703 17.913V26.041H216.711ZM238.755 26.297C236.793 26.297 235.065 25.913 233.571 25.145C232.099 24.377 230.958 23.3317 230.147 22.009C229.337 20.665 228.931 19.1397 228.931 17.433C228.931 15.705 229.326 14.1797 230.115 12.857C230.926 11.513 232.025 10.4677 233.411 9.72101C234.798 8.95302 236.366 8.56902 238.115 8.56902C239.801 8.56902 241.315 8.93168 242.659 9.65701C244.025 10.361 245.102 11.385 245.891 12.729C246.681 14.0517 247.075 15.641 247.075 17.497C247.075 17.689 247.065 17.913 247.043 18.169C247.022 18.4037 247.001 18.6277 246.979 18.841H232.995V15.929H244.355L242.435 16.793C242.435 15.897 242.254 15.1183 241.891 14.457C241.529 13.7957 241.027 13.2837 240.387 12.921C239.747 12.537 239.001 12.345 238.147 12.345C237.294 12.345 236.537 12.537 235.875 12.921C235.235 13.2837 234.734 13.8063 234.371 14.489C234.009 15.1503 233.827 15.9397 233.827 16.857V17.625C233.827 18.5637 234.03 19.3957 234.435 20.121C234.862 20.825 235.449 21.369 236.195 21.753C236.963 22.1157 237.859 22.297 238.883 22.297C239.801 22.297 240.601 22.1583 241.283 21.881C241.987 21.6037 242.627 21.1877 243.203 20.633L245.859 23.513C245.07 24.409 244.078 25.1023 242.883 25.593C241.689 26.0623 240.313 26.297 238.755 26.297ZM256.191 26.297C254.719 26.297 253.3 26.1263 251.935 25.785C250.591 25.4223 249.524 24.9743 248.735 24.441L250.399 20.857C251.188 21.3477 252.116 21.753 253.183 22.073C254.271 22.3717 255.337 22.521 256.383 22.521C257.535 22.521 258.345 22.3823 258.815 22.105C259.305 21.8277 259.551 21.4437 259.551 20.953C259.551 20.5477 259.359 20.249 258.975 20.057C258.612 19.8437 258.121 19.6837 257.503 19.577C256.884 19.4703 256.201 19.3637 255.455 19.257C254.729 19.1503 253.993 19.0117 253.247 18.841C252.5 18.649 251.817 18.3717 251.199 18.009C250.58 17.6463 250.079 17.1557 249.695 16.537C249.332 15.9183 249.151 15.1183 249.151 14.137C249.151 13.049 249.46 12.089 250.079 11.257C250.719 10.425 251.636 9.77435 252.831 9.30502C254.025 8.81435 255.455 8.56902 257.119 8.56902C258.292 8.56902 259.487 8.69702 260.703 8.95301C261.919 9.20901 262.932 9.58235 263.743 10.073L262.079 13.625C261.247 13.1343 260.404 12.8037 259.551 12.633C258.719 12.441 257.908 12.345 257.119 12.345C256.009 12.345 255.199 12.4943 254.687 12.793C254.175 13.0917 253.919 13.4757 253.919 13.945C253.919 14.3717 254.1 14.6917 254.463 14.905C254.847 15.1183 255.348 15.289 255.967 15.417C256.585 15.545 257.257 15.6623 257.983 15.769C258.729 15.8543 259.476 15.993 260.223 16.185C260.969 16.377 261.641 16.6543 262.239 17.017C262.857 17.3583 263.359 17.8383 263.743 18.457C264.127 19.0543 264.319 19.8437 264.319 20.825C264.319 21.8917 263.999 22.841 263.359 23.673C262.719 24.4837 261.791 25.1237 260.575 25.593C259.38 26.0623 257.919 26.297 256.191 26.297ZM275.943 26.297C273.98 26.297 272.252 25.913 270.759 25.145C269.287 24.377 268.145 23.3317 267.335 22.009C266.524 20.665 266.119 19.1397 266.119 17.433C266.119 15.705 266.513 14.1797 267.303 12.857C268.113 11.513 269.212 10.4677 270.599 9.72101C271.985 8.95302 273.553 8.56902 275.303 8.56902C276.988 8.56902 278.503 8.93168 279.847 9.65701C281.212 10.361 282.289 11.385 283.079 12.729C283.868 14.0517 284.263 15.641 284.263 17.497C284.263 17.689 284.252 17.913 284.231 18.169C284.209 18.4037 284.188 18.6277 284.167 18.841H270.183V15.929H281.543L279.623 16.793C279.623 15.897 279.441 15.1183 279.079 14.457C278.716 13.7957 278.215 13.2837 277.575 12.921C276.935 12.537 276.188 12.345 275.335 12.345C274.481 12.345 273.724 12.537 273.063 12.921C272.423 13.2837 271.921 13.8063 271.559 14.489C271.196 15.1503 271.015 15.9397 271.015 16.857V17.625C271.015 18.5637 271.217 19.3957 271.623 20.121C272.049 20.825 272.636 21.369 273.383 21.753C274.151 22.1157 275.047 22.297 276.071 22.297C276.988 22.297 277.788 22.1583 278.471 21.881C279.175 21.6037 279.815 21.1877 280.391 20.633L283.047 23.513C282.257 24.409 281.265 25.1023 280.071 25.593C278.876 26.0623 277.5 26.297 275.943 26.297ZM287.586 26.041V8.82501H292.354V13.689L291.682 12.281C292.194 11.065 293.016 10.1477 294.146 9.52901C295.277 8.88902 296.653 8.56902 298.274 8.56902V13.177C298.061 13.1557 297.869 13.145 297.698 13.145C297.528 13.1237 297.346 13.113 297.154 13.113C295.789 13.113 294.68 13.5077 293.826 14.297C292.994 15.065 292.578 16.2703 292.578 17.913V26.041H287.586ZM306.508 26.041L299.276 8.82501H304.428L310.444 23.641H307.884L314.124 8.82501H318.924L311.66 26.041H306.508ZM330.959 26.041V22.681L330.639 21.945V15.929C330.639 14.8623 330.308 14.0303 329.647 13.433C329.007 12.8357 328.015 12.537 326.671 12.537C325.753 12.537 324.847 12.6863 323.951 12.985C323.076 13.2623 322.329 13.6463 321.711 14.137L319.919 10.649C320.857 9.98768 321.988 9.47568 323.311 9.11301C324.633 8.75035 325.977 8.56902 327.343 8.56902C329.967 8.56902 332.004 9.18768 333.455 10.425C334.905 11.6623 335.631 13.593 335.631 16.217V26.041H330.959ZM325.711 26.297C324.367 26.297 323.215 26.073 322.255 25.625C321.295 25.1557 320.559 24.5263 320.047 23.737C319.535 22.9477 319.279 22.0623 319.279 21.081C319.279 20.057 319.524 19.161 320.015 18.393C320.527 17.625 321.327 17.0277 322.415 16.601C323.503 16.153 324.921 15.929 326.671 15.929H331.247V18.841H327.215C326.041 18.841 325.231 19.033 324.783 19.417C324.356 19.801 324.143 20.281 324.143 20.857C324.143 21.497 324.388 22.009 324.879 22.393C325.391 22.7557 326.084 22.937 326.959 22.937C327.791 22.937 328.537 22.745 329.199 22.361C329.86 21.9557 330.34 21.369 330.639 20.601L331.407 22.905C331.044 24.0143 330.383 24.857 329.423 25.433C328.463 26.009 327.225 26.297 325.711 26.297ZM347.189 26.297C345.162 26.297 343.583 25.785 342.453 24.761C341.322 23.7157 340.757 22.169 340.757 20.121V5.01702H345.749V20.057C345.749 20.7823 345.941 21.3477 346.325 21.753C346.709 22.137 347.231 22.329 347.893 22.329C348.682 22.329 349.354 22.1157 349.909 21.689L351.253 25.209C350.741 25.5717 350.122 25.849 349.397 26.041C348.693 26.2117 347.957 26.297 347.189 26.297ZM338.101 13.049V9.20901H350.037V13.049H338.101ZM354.055 26.041V8.82501H359.047V26.041H354.055ZM356.551 6.42501C355.634 6.42501 354.887 6.15835 354.311 5.62502C353.735 5.09168 353.447 4.43035 353.447 3.64101C353.447 2.85168 353.735 2.19035 354.311 1.65701C354.887 1.12368 355.634 0.857014 356.551 0.857014C357.468 0.857014 358.215 1.11301 358.791 1.62502C359.367 2.11568 359.655 2.75568 359.655 3.54502C359.655 4.37701 359.367 5.07035 358.791 5.62502C358.236 6.15835 357.49 6.42501 356.551 6.42501ZM371.872 26.297C370.037 26.297 368.405 25.913 366.976 25.145C365.568 24.377 364.448 23.3317 363.616 22.009C362.805 20.665 362.4 19.1397 362.4 17.433C362.4 15.705 362.805 14.1797 363.616 12.857C364.448 11.513 365.568 10.4677 366.976 9.72101C368.405 8.95302 370.037 8.56902 371.872 8.56902C373.685 8.56902 375.307 8.95302 376.736 9.72101C378.165 10.4677 379.285 11.5023 380.096 12.825C380.907 14.1477 381.312 15.6837 381.312 17.433C381.312 19.1397 380.907 20.665 380.096 22.009C379.285 23.3317 378.165 24.377 376.736 25.145C375.307 25.913 373.685 26.297 371.872 26.297ZM371.872 22.201C372.704 22.201 373.451 22.009 374.112 21.625C374.773 21.241 375.296 20.697 375.68 19.993C376.064 19.2677 376.256 18.4143 376.256 17.433C376.256 16.4303 376.064 15.577 375.68 14.873C375.296 14.169 374.773 13.625 374.112 13.241C373.451 12.857 372.704 12.665 371.872 12.665C371.04 12.665 370.293 12.857 369.632 13.241C368.971 13.625 368.437 14.169 368.032 14.873C367.648 15.577 367.456 16.4303 367.456 17.433C367.456 18.4143 367.648 19.2677 368.032 19.993C368.437 20.697 368.971 21.241 369.632 21.625C370.293 22.009 371.04 22.201 371.872 22.201ZM395.113 8.56902C396.478 8.56902 397.694 8.84635 398.761 9.40101C399.849 9.93435 400.702 10.7663 401.321 11.897C401.939 13.0063 402.249 14.4357 402.249 16.185V26.041H397.257V16.953C397.257 15.5663 396.947 14.5423 396.329 13.881C395.731 13.2197 394.878 12.889 393.769 12.889C392.979 12.889 392.265 13.0597 391.625 13.401C391.006 13.721 390.515 14.2223 390.153 14.905C389.811 15.5877 389.641 16.4623 389.641 17.529V26.041H384.649V8.82501H389.417V13.593L388.521 12.153C389.139 11.001 390.025 10.1157 391.177 9.49701C392.329 8.87835 393.641 8.56902 395.113 8.56902ZM412.566 26.297C411.094 26.297 409.675 26.1263 408.31 25.785C406.966 25.4223 405.899 24.9743 405.11 24.441L406.774 20.857C407.563 21.3477 408.491 21.753 409.558 22.073C410.646 22.3717 411.712 22.521 412.758 22.521C413.91 22.521 414.72 22.3823 415.19 22.105C415.68 21.8277 415.926 21.4437 415.926 20.953C415.926 20.5477 415.734 20.249 415.35 20.057C414.987 19.8437 414.496 19.6837 413.878 19.577C413.259 19.4703 412.576 19.3637 411.83 19.257C411.104 19.1503 410.368 19.0117 409.622 18.841C408.875 18.649 408.192 18.3717 407.574 18.009C406.955 17.6463 406.454 17.1557 406.07 16.537C405.707 15.9183 405.526 15.1183 405.526 14.137C405.526 13.049 405.835 12.089 406.454 11.257C407.094 10.425 408.011 9.77435 409.206 9.30502C410.4 8.81435 411.83 8.56902 413.494 8.56902C414.667 8.56902 415.862 8.69702 417.078 8.95301C418.294 9.20901 419.307 9.58235 420.118 10.073L418.454 13.625C417.622 13.1343 416.779 12.8037 415.926 12.633C415.094 12.441 414.283 12.345 413.494 12.345C412.384 12.345 411.574 12.4943 411.062 12.793C410.55 13.0917 410.294 13.4757 410.294 13.945C410.294 14.3717 410.475 14.6917 410.838 14.905C411.222 15.1183 411.723 15.289 412.342 15.417C412.96 15.545 413.632 15.6623 414.358 15.769C415.104 15.8543 415.851 15.993 416.598 16.185C417.344 16.377 418.016 16.6543 418.614 17.017C419.232 17.3583 419.734 17.8383 420.118 18.457C420.502 19.0543 420.694 19.8437 420.694 20.825C420.694 21.8917 420.374 22.841 419.734 23.673C419.094 24.4837 418.166 25.1237 416.95 25.593C415.755 26.0623 414.294 26.297 412.566 26.297Z" fill="#22205F"/>
</svg>
