<svg width="41" height="41" viewBox="0 0 41 41" fill="none" xmlns="http://www.w3.org/2000/svg">
<path d="M20.9139 4.0472C19.2658 4.0472 17.6546 4.53594 16.2842 5.45162C14.9138 6.3673 13.8457 7.66879 13.2149 9.1915C12.5842 10.7142 12.4192 12.3898 12.7407 14.0063C13.0623 15.6228 13.8559 17.1077 15.0214 18.2731C16.1868 19.4385 17.6717 20.2322 19.2882 20.5537C20.9047 20.8753 22.5803 20.7103 24.103 20.0795C25.6257 19.4488 26.9272 18.3807 27.8429 17.0103C28.7585 15.6399 29.2473 14.0287 29.2473 12.3805C29.2473 10.1704 28.3693 8.05078 26.8065 6.48798C25.2437 4.92517 23.1241 4.0472 20.9139 4.0472ZM20.9139 17.3805C19.925 17.3805 18.9583 17.0873 18.1361 16.5379C17.3138 15.9885 16.673 15.2076 16.2945 14.2939C15.9161 13.3803 15.8171 12.375 16.01 11.4051C16.2029 10.4352 16.6791 9.54426 17.3784 8.845C18.0777 8.14574 18.9686 7.66953 19.9385 7.47661C20.9084 7.28368 21.9137 7.3827 22.8274 7.76114C23.741 8.13957 24.5219 8.78044 25.0713 9.60268C25.6207 10.4249 25.9139 11.3916 25.9139 12.3805C25.9139 13.7066 25.3872 14.9784 24.4495 15.9161C23.5118 16.8537 22.24 17.3805 20.9139 17.3805ZM35.9139 35.7139V34.0472C35.9139 30.953 34.6848 27.9855 32.4969 25.7976C30.3089 23.6097 27.3415 22.3805 24.2473 22.3805H17.5806C14.4864 22.3805 11.519 23.6097 9.33103 25.7976C7.1431 27.9855 5.91394 30.953 5.91394 34.0472V35.7139H9.24727V34.0472C9.24727 31.8371 10.1252 29.7174 11.6881 28.1546C13.2509 26.5918 15.3705 25.7139 17.5806 25.7139H24.2473C26.4574 25.7139 28.577 26.5918 30.1398 28.1546C31.7026 29.7174 32.5806 31.8371 32.5806 34.0472V35.7139H35.9139Z" fill="#333333"/>
</svg>
