<svg width="56" height="55" viewBox="0 0 56 55" fill="none" xmlns="http://www.w3.org/2000/svg">
<path d="M9.85562 35.4742C9.80275 35.8699 9.77596 36.2688 9.77541 36.6681C9.77541 42.1177 14.675 46.4856 20.136 45.7523C21.7242 48.5802 24.7492 50.4181 28.1087 50.4181C31.4683 50.4181 34.4933 48.5802 36.0815 45.7523C41.531 46.4856 46.4421 42.1177 46.4421 36.6681C46.4421 36.2717 46.4146 35.8729 46.3619 35.4742C49.1875 33.886 51.0254 30.8587 51.0254 27.5014C51.0254 24.1442 49.1875 21.1169 46.3619 19.5287C46.4146 19.13 46.4421 18.7312 46.4421 18.3348C46.4421 12.8852 41.531 8.50811 36.0815 9.25061C34.4933 6.42269 31.4683 4.58478 28.1087 4.58478C24.7492 4.58478 21.7242 6.42269 20.136 9.25061C14.675 8.50811 9.77541 12.8852 9.77541 18.3348C9.77541 18.7312 9.80291 19.13 9.85562 19.5287C7.02999 21.1169 5.19208 24.1442 5.19208 27.5014C5.19208 30.8587 7.02999 33.886 9.85562 35.4742ZM13.1602 23.0923L15.6856 22.4208L14.691 20.0077C14.4729 19.4769 14.36 18.9087 14.3587 18.3348C14.3587 15.8071 16.4144 13.7514 18.9421 13.7514C19.5081 13.7514 20.0856 13.866 20.615 14.0837L23.0304 15.0783L23.7019 12.5529C23.9605 11.5816 24.5328 10.723 25.3297 10.1105C26.1266 9.49795 27.1036 9.16588 28.1087 9.16588C29.1139 9.16588 30.0908 9.49795 30.8878 10.1105C31.6847 10.723 32.257 11.5816 32.5156 12.5529L33.1871 15.0783L35.6025 14.0837C36.1319 13.866 36.7094 13.7514 37.2754 13.7514C39.8031 13.7514 41.8587 15.8071 41.8587 18.3348C41.8587 18.9008 41.7442 19.4806 41.5264 20.0077L40.5319 22.4208L43.0573 23.0923C44.0263 23.3541 44.8821 23.9279 45.4923 24.7249C46.1025 25.5219 46.4332 26.4977 46.4332 27.5014C46.4332 28.5052 46.1025 29.481 45.4923 30.278C44.8821 31.075 44.0263 31.6488 43.0573 31.9106L40.5319 32.5821L41.5264 34.9952C41.7442 35.5223 41.8587 36.1021 41.8587 36.6681C41.8587 39.1958 39.8031 41.2514 37.2754 41.2514C36.7094 41.2514 36.1319 41.1369 35.6025 40.9191L33.1871 39.9246L32.5156 42.45C32.257 43.4213 31.6847 44.2799 30.8878 44.8924C30.0908 45.5049 29.1139 45.837 28.1087 45.837C27.1036 45.837 26.1266 45.5049 25.3297 44.8924C24.5328 44.2799 23.9605 43.4213 23.7019 42.45L23.0304 39.9246L20.615 40.9191C20.0841 41.1371 19.516 41.25 18.9421 41.2514C16.4144 41.2514 14.3587 39.1958 14.3587 36.6681C14.3587 36.1021 14.4733 35.5223 14.691 34.9952L15.6856 32.5821L13.1602 31.9106C12.1912 31.6488 11.3354 31.075 10.7252 30.278C10.115 29.481 9.7843 28.5052 9.7843 27.5014C9.7843 26.4977 10.115 25.5219 10.7252 24.7249C11.3354 23.9279 12.1912 23.3541 13.1602 23.0923Z" fill="#22205F"/>
<path d="M36.6842 24.5452L33.4575 21.291L25.824 28.8512L22.854 25.8812L19.6135 29.1216L25.8102 35.3183L36.6842 24.5452Z" fill="#22205F"/>
</svg>
