<svg width="24" height="24" viewBox="0 0 24 24" fill="none" xmlns="http://www.w3.org/2000/svg">
<path d="M18.2378 7.66764L18.2388 7.66729C19.158 7.35664 20.2207 7.33425 21.2262 7.61434C22.2623 7.90297 22.8674 8.3999 23.054 8.86511L23.054 8.86514C23.1356 9.06858 23.1487 9.29512 23.0619 9.50901C22.9766 9.71937 22.7701 9.97731 22.3011 10.1981L22.301 10.198L22.293 10.202L4.13791 19.1505L0.952134 13.1646L0.9521 13.1646C0.911542 13.0884 0.887201 13.0046 0.88061 12.9186C0.874018 12.8325 0.88532 12.7461 0.913801 12.6646C0.942282 12.5831 0.987327 12.5084 1.0461 12.4452C1.10487 12.382 1.17609 12.3317 1.25528 12.2974L1.25536 12.2973L2.1669 11.9021C2.16694 11.9021 2.16697 11.9021 2.16701 11.9021C2.47688 11.7681 2.81884 11.7264 3.15181 11.7821C3.48475 11.8377 3.79455 11.9882 4.044 12.2156C4.04407 12.2157 4.04413 12.2157 4.04419 12.2158L5.72077 13.7477L5.97954 13.9841L6.29004 13.8215L8.40753 12.7122L9.13071 12.3334L8.46462 11.8614L2.94429 7.94929L2.94427 7.94928C2.8677 7.89502 2.80433 7.82422 2.75887 7.74213C2.7134 7.66003 2.68701 7.56876 2.68164 7.47507C2.67628 7.38138 2.69208 7.28768 2.72787 7.20093C2.76366 7.1142 2.81852 7.03664 2.88838 6.974C2.88839 6.97399 2.8884 6.97398 2.88841 6.97397L4.08059 5.90534L4.0806 5.90535L4.08195 5.90412C4.3234 5.68611 4.62122 5.54028 4.94149 5.48326C5.26176 5.42623 5.59162 5.46029 5.89347 5.58157L5.89516 5.58225L14.8005 9.12262L15.003 9.20313L15.1999 9.10958L18.2243 7.67215L18.2378 7.66764ZM3.61657 7.81297L10.0857 12.3975L5.90084 14.5897L3.70636 12.5846L3.70605 12.5843C3.52802 12.422 3.30688 12.3145 3.06922 12.2747L2.98681 12.7679L3.06922 12.2747C2.83155 12.235 2.58747 12.2648 2.36632 12.3605L2.36593 12.3606L1.82687 12.5944L1.32996 12.8099L1.58441 13.288L4.12391 18.0599L4.35161 18.4878L4.78635 18.2735L22.0764 9.75134C22.1837 9.70338 22.2855 9.64399 22.3801 9.57419L22.8073 9.25894L22.467 8.85141C22.2679 8.61288 21.824 8.30308 21.1097 8.10099L21.1097 8.10098C20.2343 7.85336 19.2702 7.85829 18.4447 8.12581L18.4137 8.13587L18.3842 8.14986L15.0209 9.74828L5.71206 6.04751C5.71175 6.04739 5.71144 6.04726 5.71113 6.04714C5.49491 5.96051 5.25873 5.93623 5.0294 5.97706C4.80009 6.01789 4.58682 6.12219 4.4138 6.27812C4.41354 6.27835 4.41329 6.27858 4.41303 6.27881L3.57195 7.0327L3.1055 7.45078L3.61657 7.81297ZM1.24996 22.25H22.75V22.75H1.24996V22.25Z" fill="white" stroke="white"/>
</svg>
