<svg width="24" height="24" viewBox="0 0 24 24" fill="none" xmlns="http://www.w3.org/2000/svg">
<mask id="path-1-inside-1_612_174" fill="white">
<path d="M22.8881 14.9932H23.2399L21.8336 13.6166V7.2375H23.25L21.5284 6.10125V4.6905H21.8333V4.09425H19.701V4.6905H20.0059V5.09625L17.9662 3.75L12.6825 7.2375H14.0989V13.6166L12.6926 14.9932H13.0444V19.7692C12.9837 19.7526 12.9212 19.7437 12.8584 19.7426C12.7688 19.7426 12.684 19.7603 12.6038 19.788C12.546 19.4051 11.8972 19.2956 11.7037 19.5784C11.7137 19.5369 11.7189 19.494 11.7191 19.4498C11.7184 19.2937 11.6558 19.1443 11.545 19.0343C11.4341 18.9244 11.2842 18.863 11.1281 18.8636C11.067 18.8636 11.0104 18.876 10.9556 18.8936V14.9932H11.3074L9.90112 13.6166V7.2375H11.3175L9.59625 6.10162V4.6905H9.90112V4.09425H7.76887V4.6905H8.07375V5.09662L6.03375 3.75L0.75 7.2375H2.16637V13.6166L0.760125 14.9932H1.11187V21.8738H0.75V23.25H23.25V21.8738H22.8881V14.9932ZM14.8492 7.2375H21.0836V13.6166H14.8492V7.2375ZM22.1381 15.7361V21.8738H17.2631V17.4015H17.6149V16.713H14.4506V17.4015H14.8024V21.8738H13.7944V15.7361H22.1381ZM16.4989 19.6373C16.4989 19.509 16.6046 19.4055 16.7362 19.4055C16.8675 19.4055 16.9733 19.509 16.9733 19.6373C16.9733 19.7659 16.8675 19.8698 16.7362 19.8698C16.7054 19.8701 16.6747 19.8644 16.6461 19.853C16.6174 19.8415 16.5913 19.8244 16.5692 19.8028C16.5472 19.7812 16.5296 19.7555 16.5175 19.7271C16.5055 19.6986 16.4991 19.6681 16.4989 19.6373ZM4.56638 19.6373C4.56638 19.509 4.67213 19.4055 4.80375 19.4055C4.935 19.4055 5.04075 19.509 5.04075 19.6373C5.04075 19.7659 4.935 19.8698 4.80375 19.8698C4.77288 19.8701 4.74223 19.8644 4.71357 19.853C4.68491 19.8415 4.6588 19.8244 4.63674 19.8028C4.61469 19.7812 4.59711 19.7555 4.58504 19.7271C4.57296 19.6986 4.56662 19.6681 4.56638 19.6373ZM13.0444 21.4103C13.0343 21.408 13.0249 21.4039 13.014 21.4039C12.9049 21.4039 12.8171 21.5119 12.8171 21.4039C12.8171 21.2959 12.9049 21.2089 13.014 21.2089C13.0249 21.2089 13.0343 21.213 13.0444 21.2149V21.4103ZM10.9556 21.4069V21.1024C11.1611 21.1155 11.325 21.2812 11.325 21.4875C11.325 21.6952 11.1619 21.4286 10.9556 21.4069ZM12.8021 20.085C12.8951 20.085 12.9769 20.1214 13.0444 20.1746V20.4656C12.9773 20.412 12.894 20.3524 12.8021 20.3524C12.5835 20.3524 12.4058 20.694 12.4058 20.4772C12.4058 20.2605 12.5835 20.085 12.8021 20.085ZM12.1669 20.9434C12.3146 20.9434 12.4339 21.0611 12.4339 21.2078C12.4339 21.3544 12.3146 21.1365 12.1669 21.1365C12.0191 21.1365 11.8999 21.354 11.8999 21.2078C11.8999 21.0611 12.0195 20.9434 12.1669 20.9434ZM11.181 19.5758C11.216 19.5756 11.2506 19.5823 11.283 19.5956C11.3153 19.6088 11.3448 19.6283 11.3696 19.6529C11.3944 19.6776 11.4142 19.7068 11.4277 19.7391C11.4412 19.7713 11.4482 19.8059 11.4484 19.8409C11.4484 19.9871 11.3287 19.7692 11.181 19.7692C11.0857 19.7692 11.0025 19.8592 10.9552 19.884V19.7078C10.9781 19.6679 11.0109 19.6348 11.0505 19.6116C11.0901 19.5885 11.1351 19.5761 11.181 19.5758ZM2.91637 7.2375H9.15075V13.6166H2.91637V7.2375ZM1.86188 15.7361H10.2056V21.8738H5.33063V17.4015H5.68237V16.713H2.51813V17.4015H2.86987V21.8738H1.86188V15.7361Z"/>
</mask>
<path d="M22.8881 14.9932H23.2399L21.8336 13.6166V7.2375H23.25L21.5284 6.10125V4.6905H21.8333V4.09425H19.701V4.6905H20.0059V5.09625L17.9662 3.75L12.6825 7.2375H14.0989V13.6166L12.6926 14.9932H13.0444V19.7692C12.9837 19.7526 12.9212 19.7437 12.8584 19.7426C12.7688 19.7426 12.684 19.7603 12.6038 19.788C12.546 19.4051 11.8972 19.2956 11.7037 19.5784C11.7137 19.5369 11.7189 19.494 11.7191 19.4498C11.7184 19.2937 11.6558 19.1443 11.545 19.0343C11.4341 18.9244 11.2842 18.863 11.1281 18.8636C11.067 18.8636 11.0104 18.876 10.9556 18.8936V14.9932H11.3074L9.90112 13.6166V7.2375H11.3175L9.59625 6.10162V4.6905H9.90112V4.09425H7.76887V4.6905H8.07375V5.09662L6.03375 3.75L0.75 7.2375H2.16637V13.6166L0.760125 14.9932H1.11187V21.8738H0.75V23.25H23.25V21.8738H22.8881V14.9932ZM14.8492 7.2375H21.0836V13.6166H14.8492V7.2375ZM22.1381 15.7361V21.8738H17.2631V17.4015H17.6149V16.713H14.4506V17.4015H14.8024V21.8738H13.7944V15.7361H22.1381ZM16.4989 19.6373C16.4989 19.509 16.6046 19.4055 16.7362 19.4055C16.8675 19.4055 16.9733 19.509 16.9733 19.6373C16.9733 19.7659 16.8675 19.8698 16.7362 19.8698C16.7054 19.8701 16.6747 19.8644 16.6461 19.853C16.6174 19.8415 16.5913 19.8244 16.5692 19.8028C16.5472 19.7812 16.5296 19.7555 16.5175 19.7271C16.5055 19.6986 16.4991 19.6681 16.4989 19.6373ZM4.56638 19.6373C4.56638 19.509 4.67213 19.4055 4.80375 19.4055C4.935 19.4055 5.04075 19.509 5.04075 19.6373C5.04075 19.7659 4.935 19.8698 4.80375 19.8698C4.77288 19.8701 4.74223 19.8644 4.71357 19.853C4.68491 19.8415 4.6588 19.8244 4.63674 19.8028C4.61469 19.7812 4.59711 19.7555 4.58504 19.7271C4.57296 19.6986 4.56662 19.6681 4.56638 19.6373ZM13.0444 21.4103C13.0343 21.408 13.0249 21.4039 13.014 21.4039C12.9049 21.4039 12.8171 21.5119 12.8171 21.4039C12.8171 21.2959 12.9049 21.2089 13.014 21.2089C13.0249 21.2089 13.0343 21.213 13.0444 21.2149V21.4103ZM10.9556 21.4069V21.1024C11.1611 21.1155 11.325 21.2812 11.325 21.4875C11.325 21.6952 11.1619 21.4286 10.9556 21.4069ZM12.8021 20.085C12.8951 20.085 12.9769 20.1214 13.0444 20.1746V20.4656C12.9773 20.412 12.894 20.3524 12.8021 20.3524C12.5835 20.3524 12.4058 20.694 12.4058 20.4772C12.4058 20.2605 12.5835 20.085 12.8021 20.085ZM12.1669 20.9434C12.3146 20.9434 12.4339 21.0611 12.4339 21.2078C12.4339 21.3544 12.3146 21.1365 12.1669 21.1365C12.0191 21.1365 11.8999 21.354 11.8999 21.2078C11.8999 21.0611 12.0195 20.9434 12.1669 20.9434ZM11.181 19.5758C11.216 19.5756 11.2506 19.5823 11.283 19.5956C11.3153 19.6088 11.3448 19.6283 11.3696 19.6529C11.3944 19.6776 11.4142 19.7068 11.4277 19.7391C11.4412 19.7713 11.4482 19.8059 11.4484 19.8409C11.4484 19.9871 11.3287 19.7692 11.181 19.7692C11.0857 19.7692 11.0025 19.8592 10.9552 19.884V19.7078C10.9781 19.6679 11.0109 19.6348 11.0505 19.6116C11.0901 19.5885 11.1351 19.5761 11.181 19.5758ZM2.91637 7.2375H9.15075V13.6166H2.91637V7.2375ZM1.86188 15.7361H10.2056V21.8738H5.33063V17.4015H5.68237V16.713H2.51813V17.4015H2.86987V21.8738H1.86188V15.7361Z" fill="white" stroke="white" stroke-width="2" mask="url(#path-1-inside-1_612_174)"/>
<path d="M21.81 16.7048H18.201V20.2823H21.81V16.7048ZM19.824 19.9249H18.5614V18.672H19.824V19.9249ZM19.824 18.3139H18.5614V17.0614H19.824V18.3139ZM21.4485 19.9249H20.1855V18.672H21.4485V19.9249ZM21.4485 18.3139H20.1855V17.0614H21.4485V18.3139ZM16.1617 12.1785H19.7707V8.60101H16.1617V12.1785ZM18.1462 8.95839H19.4092V10.2105H18.1462V8.95839ZM18.1462 10.569H19.4092V11.8215H18.1462V10.569ZM16.5225 8.95839H17.7851V10.2105H16.5225V8.95839ZM16.5225 10.569H17.7851V11.8215H16.5225V10.569ZM4.22925 12.1785H7.83825V8.60101H4.22925V12.1785ZM6.21337 8.95839H7.47637V10.2105H6.21337V8.95839ZM6.21337 10.569H7.47637V11.8215H6.21337V10.569ZM4.58962 8.95839H5.85225V10.2105H4.58962V8.95839ZM4.58962 10.569H5.85225V11.8215H4.58962V10.569ZM9.8775 16.7048H6.2685V20.2823H9.8775V16.7048ZM7.89187 19.9249H6.62925V18.672H7.89187V19.9249ZM7.89187 18.3139H6.62925V17.0614H7.89187V18.3139ZM9.516 19.9249H8.253V18.672H9.516V19.9249ZM9.516 18.3139H8.253V17.0614H9.516V18.3139Z" fill="white"/>
</svg>
