<svg width="25" height="24" viewBox="0 0 25 24" fill="none" xmlns="http://www.w3.org/2000/svg">
<mask id="path-1-inside-1_612_253" fill="white">
<path d="M12.4287 24C10.8528 24 9.29242 23.6896 7.83651 23.0866C6.3806 22.4835 5.05773 21.5996 3.94343 20.4853C2.82913 19.371 1.94521 18.0481 1.34216 16.5922C0.7391 15.1363 0.428711 13.5759 0.428711 12C0.428711 10.4241 0.7391 8.86371 1.34216 7.4078C1.94521 5.95189 2.82913 4.62902 3.94343 3.51472C5.05773 2.40042 6.3806 1.5165 7.83651 0.913446C9.29242 0.310389 10.8528 -2.34822e-08 12.4287 0C15.6113 4.74244e-08 18.6636 1.26428 20.914 3.51472C23.1644 5.76516 24.4287 8.8174 24.4287 12C24.4287 15.1826 23.1644 18.2348 20.914 20.4853C18.6636 22.7357 15.6113 24 12.4287 24ZM12.4287 24V10.2857C12.4287 9.3764 12.7899 8.50433 13.4329 7.86135C14.0759 7.21837 14.948 6.85714 15.8573 6.85714H16.7144M8.143 13.7143H16.7144H8.143Z"/>
</mask>
<path d="M0.428711 12H-1.07129H0.428711ZM12.4287 0V-1.5V0ZM24.4287 12H22.9287H24.4287ZM15.8573 6.85714V5.35714V6.85714ZM12.4287 22.5C11.0498 22.5 9.68445 22.2284 8.41053 21.7007L7.26248 24.4724C8.90038 25.1508 10.6559 25.5 12.4287 25.5V22.5ZM8.41053 21.7007C7.13662 21.1731 5.9791 20.3996 5.00409 19.4246L2.88277 21.5459C4.13636 22.7995 5.62459 23.7939 7.26248 24.4724L8.41053 21.7007ZM5.00409 19.4246C4.02907 18.4496 3.25565 17.2921 2.72798 16.0182L-0.0436626 17.1662C0.634776 18.8041 1.62918 20.2924 2.88277 21.5459L5.00409 19.4246ZM2.72798 16.0182C2.2003 14.7443 1.92871 13.3789 1.92871 12H-1.07129C-1.07129 13.7728 -0.722101 15.5283 -0.0436626 17.1662L2.72798 16.0182ZM1.92871 12C1.92871 10.6211 2.2003 9.25574 2.72798 7.98182L-0.0436626 6.83377C-0.722101 8.47167 -1.07129 10.2272 -1.07129 12H1.92871ZM2.72798 7.98182C3.25565 6.7079 4.02907 5.55039 5.00409 4.57538L2.88277 2.45406C1.62918 3.70765 0.634776 5.19588 -0.0436626 6.83377L2.72798 7.98182ZM5.00409 4.57538C5.9791 3.60036 7.13662 2.82694 8.41053 2.29926L7.26248 -0.472374C5.62459 0.206065 4.13636 1.20047 2.88277 2.45406L5.00409 4.57538ZM8.41053 2.29926C9.68445 1.77159 11.0498 1.5 12.4287 1.5V-1.5C10.6559 -1.5 8.90038 -1.15081 7.26248 -0.472374L8.41053 2.29926ZM12.4287 1.5C15.2135 1.5 17.8842 2.60625 19.8533 4.57538L21.9747 2.45406C19.4429 -0.0776823 16.0091 -1.5 12.4287 -1.5V1.5ZM19.8533 4.57538C21.8225 6.54451 22.9287 9.21523 22.9287 12H25.9287C25.9287 8.41958 24.5064 4.9858 21.9747 2.45406L19.8533 4.57538ZM22.9287 12C22.9287 14.7848 21.8225 17.4555 19.8533 19.4246L21.9747 21.5459C24.5064 19.0142 25.9287 15.5804 25.9287 12H22.9287ZM19.8533 19.4246C17.8842 21.3938 15.2135 22.5 12.4287 22.5V25.5C16.0091 25.5 19.4429 24.0777 21.9747 21.5459L19.8533 19.4246ZM13.9287 24V10.2857H10.9287V24H13.9287ZM13.9287 10.2857C13.9287 9.77423 14.1319 9.28369 14.4936 8.92201L12.3723 6.80069C11.448 7.72497 10.9287 8.97857 10.9287 10.2857H13.9287ZM14.4936 8.92201C14.8553 8.56033 15.3458 8.35714 15.8573 8.35714V5.35714C14.5501 5.35714 13.2965 5.8764 12.3723 6.80069L14.4936 8.92201ZM15.8573 8.35714H16.7144V5.35714H15.8573V8.35714ZM8.143 15.2143H16.7144V12.2143H8.143V15.2143Z" fill="#333333" mask="url(#path-1-inside-1_612_253)"/>
</svg>
