<svg width="24" height="24" viewBox="0 0 24 24" fill="none" xmlns="http://www.w3.org/2000/svg">
<path d="M11 15.5H11.5V15V7.5H19C20.9339 7.5 22.5 9.06614 22.5 11V19.5H21.5V17V16.5H21H3H2.5V17V19.5H1.5V5.5H2.5V15V15.5H3H11ZM21 15.5H21.5V15V11C21.5 9.62386 20.3761 8.5 19 8.5H13H12.5V9V15V15.5H13H21ZM9.5 11C9.5 12.3839 8.38386 13.5 7 13.5C5.61614 13.5 4.5 12.3839 4.5 11C4.5 9.61614 5.61614 8.5 7 8.5C8.38386 8.5 9.5 9.61614 9.5 11ZM8.5 11C8.5 10.1739 7.82614 9.5 7 9.5C6.17386 9.5 5.5 10.1739 5.5 11C5.5 11.8261 6.17386 12.5 7 12.5C7.82614 12.5 8.5 11.8261 8.5 11Z" fill="white" stroke="white"/>
</svg>
