<svg width="32" height="32" viewBox="0 0 32 32" fill="none" xmlns="http://www.w3.org/2000/svg">
<path d="M9.33325 18.6667C11.5466 18.6667 13.3333 16.88 13.3333 14.6667C13.3333 12.4533 11.5466 10.6667 9.33325 10.6667C7.11992 10.6667 5.33325 12.4533 5.33325 14.6667C5.33325 16.88 7.11992 18.6667 9.33325 18.6667ZM9.33325 13.3333C10.0666 13.3333 10.6666 13.9333 10.6666 14.6667C10.6666 15.4 10.0666 16 9.33325 16C8.59992 16 7.99992 15.4 7.99992 14.6667C7.99992 13.9333 8.59992 13.3333 9.33325 13.3333ZM25.3333 9.33334H14.6666V20H3.99992V6.66667H1.33325V26.6667H3.99992V22.6667H27.9999V26.6667H30.6666V14.6667C30.6666 11.72 28.2799 9.33334 25.3333 9.33334ZM27.9999 20H17.3333V12H25.3333C26.7999 12 27.9999 13.2 27.9999 14.6667V20Z" fill="#333333"/>
<path d="M9.33325 18.6667C11.5466 18.6667 13.3333 16.88 13.3333 14.6667C13.3333 12.4533 11.5466 10.6667 9.33325 10.6667C7.11992 10.6667 5.33325 12.4533 5.33325 14.6667C5.33325 16.88 7.11992 18.6667 9.33325 18.6667ZM9.33325 13.3333C10.0666 13.3333 10.6666 13.9333 10.6666 14.6667C10.6666 15.4 10.0666 16 9.33325 16C8.59992 16 7.99992 15.4 7.99992 14.6667C7.99992 13.9333 8.59992 13.3333 9.33325 13.3333ZM25.3333 9.33334H14.6666V20H3.99992V6.66667H1.33325V26.6667H3.99992V22.6667H27.9999V26.6667H30.6666V14.6667C30.6666 11.72 28.2799 9.33334 25.3333 9.33334ZM27.9999 20H17.3333V12H25.3333C26.7999 12 27.9999 13.2 27.9999 14.6667V20Z" stroke="#333333"/>
</svg>
