<svg width="25" height="24" viewBox="0 0 25 24" fill="none" xmlns="http://www.w3.org/2000/svg">
<path d="M8.22871 2H16.6287C19.8287 2 22.4287 4.6 22.4287 7.8V16.2C22.4287 17.7383 21.8176 19.2135 20.7299 20.3012C19.6422 21.3889 18.167 22 16.6287 22H8.22871C5.02871 22 2.42871 19.4 2.42871 16.2V7.8C2.42871 6.26174 3.03978 4.78649 4.12749 3.69878C5.2152 2.61107 6.69046 2 8.22871 2ZM8.02871 4C7.07393 4 6.15826 4.37928 5.48313 5.05442C4.808 5.72955 4.42871 6.64522 4.42871 7.6V16.4C4.42871 18.39 6.03871 20 8.02871 20H16.8287C17.7835 20 18.6992 19.6207 19.3743 18.9456C20.0494 18.2705 20.4287 17.3548 20.4287 16.4V7.6C20.4287 5.61 18.8187 4 16.8287 4H8.02871ZM17.6787 5.5C18.0102 5.5 18.3282 5.6317 18.5626 5.86612C18.797 6.10054 18.9287 6.41848 18.9287 6.75C18.9287 7.08152 18.797 7.39946 18.5626 7.63388C18.3282 7.8683 18.0102 8 17.6787 8C17.3472 8 17.0292 7.8683 16.7948 7.63388C16.5604 7.39946 16.4287 7.08152 16.4287 6.75C16.4287 6.41848 16.5604 6.10054 16.7948 5.86612C17.0292 5.6317 17.3472 5.5 17.6787 5.5ZM12.4287 7C13.7548 7 15.0266 7.52678 15.9642 8.46447C16.9019 9.40215 17.4287 10.6739 17.4287 12C17.4287 13.3261 16.9019 14.5979 15.9642 15.5355C15.0266 16.4732 13.7548 17 12.4287 17C11.1026 17 9.83086 16.4732 8.89318 15.5355C7.95549 14.5979 7.42871 13.3261 7.42871 12C7.42871 10.6739 7.95549 9.40215 8.89318 8.46447C9.83086 7.52678 11.1026 7 12.4287 7ZM12.4287 9C11.6331 9 10.87 9.31607 10.3074 9.87868C9.74478 10.4413 9.42871 11.2044 9.42871 12C9.42871 12.7956 9.74478 13.5587 10.3074 14.1213C10.87 14.6839 11.6331 15 12.4287 15C13.2244 15 13.9874 14.6839 14.55 14.1213C15.1126 13.5587 15.4287 12.7956 15.4287 12C15.4287 11.2044 15.1126 10.4413 14.55 9.87868C13.9874 9.31607 13.2244 9 12.4287 9Z" fill="#333333"/>
</svg>
