<svg width="41" height="41" viewBox="0 0 41 41" fill="none" xmlns="http://www.w3.org/2000/svg">
<path d="M26.7754 20.3529H30.1088V27.0196H26.7754V20.3529Z" fill="#333333"/>
<path d="M33.4421 12.0196V8.68624C33.4421 6.84791 31.9471 5.35291 30.1088 5.35291H8.44211C5.68544 5.35291 3.44211 7.59624 3.44211 10.3529V30.3529C3.44211 34.0212 6.43211 35.3529 8.44211 35.3529H33.4421C35.2804 35.3529 36.7754 33.8579 36.7754 32.0196V15.3529C36.7754 13.5146 35.2804 12.0196 33.4421 12.0196ZM8.44211 8.68624H30.1088V12.0196H8.44211C8.01298 12.0004 7.60778 11.8164 7.3109 11.5059C7.01402 11.1955 6.84833 10.7825 6.84833 10.3529C6.84833 9.92334 7.01402 9.51033 7.3109 9.19988C7.60778 8.88942 8.01298 8.70543 8.44211 8.68624ZM33.4421 32.0196H8.46211C7.69211 31.9996 6.77544 31.6946 6.77544 30.3529V15.0446C7.29877 15.2329 7.85377 15.3529 8.44211 15.3529H33.4421V32.0196Z" fill="#333333"/>
</svg>
