<svg width="24" height="24" viewBox="0 0 24 24" fill="none" xmlns="http://www.w3.org/2000/svg">
<path d="M21.25 19.5V20H21.75H23.25C23.3163 20 23.3799 20.0263 23.4268 20.0732C23.4737 20.1201 23.5 20.1837 23.5 20.25C23.5 20.3163 23.4737 20.3799 23.4268 20.4268C23.3799 20.4737 23.3163 20.5 23.25 20.5H2.25C2.1837 20.5 2.12011 20.4737 2.07322 20.4268C2.02634 20.3799 2 20.3163 2 20.25C2 20.1837 2.02634 20.1201 2.07322 20.0732C2.12011 20.0263 2.1837 20 2.25 20H3.75H4.25V19.5V4.5V4H3.75C3.6837 4 3.62011 3.97366 3.57322 3.92678C3.52634 3.87989 3.5 3.8163 3.5 3.75C3.5 3.6837 3.52634 3.62011 3.57322 3.57322C3.62011 3.52634 3.6837 3.5 3.75 3.5H17.25C17.3163 3.5 17.3799 3.52634 17.4268 3.57322C17.4737 3.62011 17.5 3.6837 17.5 3.75C17.5 3.8163 17.4737 3.87989 17.4268 3.92678C17.3799 3.97366 17.3163 4 17.25 4H16.75V4.5V7.5V8H17.25H21.75C21.8163 8 21.8799 8.02634 21.9268 8.07322C21.9737 8.12011 22 8.1837 22 8.25C22 8.3163 21.9737 8.37989 21.9268 8.42678C21.8799 8.47366 21.8163 8.5 21.75 8.5H21.25V9V19.5ZM20.75 9V8.5H20.25H17.25H16.75V9V19.5V20H17.25H20.25H20.75V19.5V9ZM5.25 4H4.75V4.5V19.5V20H5.25H7.5H8V19.5V15C8 14.9337 8.02634 14.8701 8.07322 14.8232C8.12011 14.7763 8.18369 14.75 8.25 14.75H12.75C12.8163 14.75 12.8799 14.7763 12.9268 14.8232C12.9737 14.8701 13 14.9337 13 15V19.5V20H13.5H15.75H16.25V19.5V4.5V4H15.75H5.25ZM12 20H12.5V19.5V15.75V15.25H12H9H8.5V15.75V19.5V20H9H12ZM7.25 7.5C7.25 7.4337 7.27634 7.37011 7.32322 7.32322C7.37011 7.27634 7.4337 7.25 7.5 7.25H9C9.0663 7.25 9.12989 7.27634 9.17678 7.32322C9.22366 7.37011 9.25 7.4337 9.25 7.5C9.25 7.5663 9.22366 7.62989 9.17678 7.67678C9.12989 7.72366 9.0663 7.75 9 7.75H7.5C7.4337 7.75 7.37011 7.72366 7.32322 7.67678C7.27634 7.62989 7.25 7.5663 7.25 7.5ZM11.75 7.5C11.75 7.4337 11.7763 7.37011 11.8232 7.32322C11.8701 7.27634 11.9337 7.25 12 7.25H13.5C13.5663 7.25 13.6299 7.27634 13.6768 7.32322C13.7237 7.37011 13.75 7.43369 13.75 7.5C13.75 7.56631 13.7237 7.62989 13.6768 7.67678C13.6299 7.72366 13.5663 7.75 13.5 7.75H12C11.9337 7.75 11.8701 7.72366 11.8232 7.67678C11.7763 7.62989 11.75 7.5663 11.75 7.5ZM7.25 11.25C7.25 11.1837 7.27634 11.1201 7.32322 11.0732C7.37011 11.0263 7.4337 11 7.5 11H9C9.0663 11 9.12989 11.0263 9.17678 11.0732C9.22366 11.1201 9.25 11.1837 9.25 11.25C9.25 11.3163 9.22366 11.3799 9.17678 11.4268C9.12989 11.4737 9.0663 11.5 9 11.5H7.5C7.4337 11.5 7.37011 11.4737 7.32322 11.4268C7.27634 11.3799 7.25 11.3163 7.25 11.25ZM11.75 11.25C11.75 11.1837 11.7763 11.1201 11.8232 11.0732C11.8701 11.0263 11.9337 11 12 11H13.5C13.5663 11 13.6299 11.0263 13.6768 11.0732C13.7237 11.1201 13.75 11.1837 13.75 11.25C13.75 11.3163 13.7237 11.3799 13.6768 11.4268C13.6299 11.4737 13.5663 11.5 13.5 11.5H12C11.9337 11.5 11.8701 11.4737 11.8232 11.4268C11.7763 11.3799 11.75 11.3163 11.75 11.25Z" fill="white" stroke="white"/>
</svg>
