<svg width="24" height="24" viewBox="0 0 24 24" fill="none" xmlns="http://www.w3.org/2000/svg">
<path d="M21.0306 9.95308L21.1626 10.25H21.4875H22.5C22.5663 10.25 22.6299 10.2763 22.6768 10.3232C22.7237 10.3701 22.75 10.4337 22.75 10.5C22.75 10.5663 22.7237 10.6299 22.6768 10.6768C22.6299 10.7237 22.5663 10.75 22.5 10.75H21.75H21.25V11.25V18.75C21.25 19.0152 21.1446 19.2696 20.9571 19.4571C20.7696 19.6446 20.5152 19.75 20.25 19.75H18C17.7348 19.75 17.4804 19.6446 17.2929 19.4571C17.1054 19.2696 17 19.0152 17 18.75V17.25V16.75H16.5H7.5H7V17.25V18.75C7 19.0152 6.89464 19.2696 6.70711 19.4571L7.06066 19.8107L6.70711 19.4571C6.51957 19.6446 6.26522 19.75 6 19.75H3.75C3.48478 19.75 3.23043 19.6446 3.04289 19.4571C2.85536 19.2696 2.75 19.0152 2.75 18.75V11.25V10.75H2.25H1.5C1.4337 10.75 1.37011 10.7237 1.32322 10.6768C1.27634 10.6299 1.25 10.5663 1.25 10.5C1.25 10.4337 1.27634 10.3701 1.32322 10.3232C1.37011 10.2763 1.4337 10.25 1.5 10.25H2.5125H2.83743L2.9694 9.95308L5.57376 4.09375C5.57376 4.09374 5.57377 4.09372 5.57377 4.09371C5.65235 3.91699 5.78048 3.76685 5.94265 3.66148C6.10483 3.55609 6.29409 3.5 6.4875 3.5H17.5125C17.7059 3.5 17.8952 3.55609 18.0573 3.66148C18.2195 3.76685 18.3477 3.91699 18.4262 4.09371C18.4262 4.09372 18.4262 4.09374 18.4262 4.09375L21.0306 9.95308ZM6.4875 4H6.16257L6.0306 4.29692L3.69716 9.54692L3.38467 10.25H4.15406H19.8459H20.6153L20.3028 9.54692L17.9694 4.29692L17.8374 4H17.5125H6.4875ZM6 19.25H6.5V18.75V17.25V16.75H6H3.75H3.25V17.25V18.75V19.25H3.75H6ZM17.5 18.75V19.25H18H20.25H20.75V18.75V17.25V16.75H20.25H18H17.5V17.25V18.75ZM20.25 16.25H20.75V15.75V11.25V10.75H20.25H3.75H3.25V11.25V15.75V16.25H3.75H20.25ZM5.75 13.5C5.75 13.4337 5.77634 13.3701 5.82322 13.3232C5.87011 13.2763 5.93369 13.25 6 13.25H7.5C7.56631 13.25 7.62989 13.2763 7.67678 13.3232C7.72366 13.3701 7.75 13.4337 7.75 13.5C7.75 13.5663 7.72366 13.6299 7.67678 13.6768C7.62989 13.7237 7.56631 13.75 7.5 13.75H6C5.93369 13.75 5.87011 13.7237 5.82322 13.6768C5.77634 13.6299 5.75 13.5663 5.75 13.5ZM16.25 13.5C16.25 13.4337 16.2763 13.3701 16.3232 13.3232C16.3701 13.2763 16.4337 13.25 16.5 13.25H18C18.0663 13.25 18.1299 13.2763 18.1768 13.3232C18.2237 13.3701 18.25 13.4337 18.25 13.5C18.25 13.5663 18.2237 13.6299 18.1768 13.6768C18.1299 13.7237 18.0663 13.75 18 13.75H16.5C16.4337 13.75 16.3701 13.7237 16.3232 13.6768C16.2763 13.6299 16.25 13.5663 16.25 13.5Z" fill="white" stroke="white"/>
</svg>
