<svg width="41" height="41" viewBox="0 0 41 41" fill="none" xmlns="http://www.w3.org/2000/svg">
<path d="M20.4689 27.339C24.1456 27.339 27.1356 24.349 27.1356 20.6724C27.1356 16.9957 24.1456 14.0057 20.4689 14.0057C16.7923 14.0057 13.8023 16.9957 13.8023 20.6724C13.8023 24.349 16.7923 27.339 20.4689 27.339ZM20.4689 17.339C22.2756 17.339 23.8023 18.8657 23.8023 20.6724C23.8023 22.479 22.2756 24.0057 20.4689 24.0057C18.6623 24.0057 17.1356 22.479 17.1356 20.6724C17.1356 18.8657 18.6623 17.339 20.4689 17.339Z" fill="#333333"/>
<path d="M5.2106 27.5657L6.87727 30.449C7.76227 31.9774 9.89227 32.5507 11.4273 31.6657L12.3089 31.1557C13.2732 31.9142 14.3363 32.5377 15.4689 33.009V34.0057C15.4689 35.844 16.9639 37.339 18.8023 37.339H22.1356C23.9739 37.339 25.4689 35.844 25.4689 34.0057V33.009C26.6012 32.5376 27.6642 31.9147 28.6289 31.1574L29.5106 31.6674C31.0489 32.5507 33.1739 31.9807 34.0623 30.449L35.7273 27.5674C36.169 26.8019 36.2888 25.8924 36.0603 25.0386C35.8319 24.1848 35.2739 23.4567 34.5089 23.014L33.6673 22.5274C33.8462 21.2983 33.8462 20.0498 33.6673 18.8207L34.5089 18.334C35.2736 17.8911 35.8312 17.1629 36.0596 16.3093C36.288 15.4557 36.1685 14.5463 35.7273 13.7807L34.0623 10.899C33.1773 9.36571 31.0489 8.79071 29.5106 9.67904L28.6289 10.189C27.6647 9.43055 26.6016 8.80703 25.4689 8.33571V7.33904C25.4689 5.50071 23.9739 4.00571 22.1356 4.00571H18.8023C16.9639 4.00571 15.4689 5.50071 15.4689 7.33904V8.33571C14.3367 8.80711 13.2736 9.43002 12.3089 10.1874L11.4273 9.67737C9.88727 8.79237 7.7606 9.36571 6.8756 10.8974L5.2106 13.779C4.76891 14.5445 4.64912 15.4541 4.87756 16.3078C5.106 17.1616 5.66398 17.8897 6.42894 18.3324L7.2706 18.819C7.09099 20.0475 7.09099 21.2956 7.2706 22.524L6.42894 23.0107C5.6642 23.454 5.10648 24.1824 4.87809 25.0363C4.6497 25.8902 4.76928 26.7999 5.2106 27.5657ZM10.7539 22.969C10.5657 22.218 10.47 21.4467 10.4689 20.6724C10.4689 19.9024 10.5656 19.129 10.7523 18.3757C10.8402 18.0246 10.8113 17.6544 10.6699 17.3212C10.5286 16.988 10.2825 16.7099 9.96894 16.529L8.09727 15.4457L9.7606 12.564L11.6689 13.6674C11.9801 13.8475 12.3414 13.9217 12.6984 13.8791C13.0554 13.8364 13.3889 13.6791 13.6489 13.4307C14.7765 12.3583 16.1362 11.5604 17.6223 11.099C17.9636 10.9948 18.2625 10.7838 18.475 10.4969C18.6874 10.2101 18.8021 9.86264 18.8023 9.50571V7.33904H22.1356V9.50571C22.1358 9.86264 22.2505 10.2101 22.4629 10.4969C22.6753 10.7838 22.9742 10.9948 23.3156 11.099C24.8014 11.5611 26.161 12.3589 27.2889 13.4307C27.5492 13.6786 27.8827 13.8356 28.2396 13.8782C28.5965 13.9209 28.9576 13.8469 29.2689 13.6674L31.1756 12.5657L32.8423 15.4474L30.9689 16.529C30.6556 16.7101 30.4097 16.9882 30.2683 17.3213C30.127 17.6545 30.098 18.0246 30.1856 18.3757C30.3723 19.129 30.4689 19.9024 30.4689 20.6724C30.4689 21.4407 30.3723 22.214 30.1839 22.969C30.0965 23.3203 30.1258 23.6906 30.2674 24.0237C30.409 24.3569 30.6553 24.6349 30.9689 24.8157L32.8406 25.8974L31.1773 28.779L29.2689 27.6774C28.9578 27.497 28.5965 27.4226 28.2394 27.4653C27.8824 27.508 27.5488 27.6654 27.2889 27.914C26.1614 28.9864 24.8017 29.7843 23.3156 30.2457C22.9742 30.3499 22.6753 30.561 22.4629 30.8478C22.2505 31.1347 22.1358 31.4821 22.1356 31.839L22.1389 34.0057H18.8023V31.839C18.8021 31.4821 18.6874 31.1347 18.475 30.8478C18.2625 30.561 17.9636 30.3499 17.6223 30.2457C16.1364 29.7837 14.7769 28.9859 13.6489 27.914C13.3894 27.6647 13.0557 27.5069 12.6983 27.4645C12.341 27.4221 11.9796 27.4974 11.6689 27.679L9.76227 28.7824L8.0956 25.9007L9.96894 24.8157C10.2826 24.6349 10.5289 24.3569 10.6705 24.0237C10.8121 23.6906 10.8414 23.3203 10.7539 22.969Z" fill="#333333"/>
</svg>
