<svg width="24" height="25" viewBox="0 0 24 25" fill="none" xmlns="http://www.w3.org/2000/svg">
<path d="M6.51603 15.0505L5.02603 21.5025C4.97989 21.6978 4.99374 21.9026 5.06577 22.09C5.1378 22.2773 5.26467 22.4386 5.4298 22.5528C5.59492 22.6669 5.79064 22.7286 5.99138 22.7298C6.19212 22.731 6.38855 22.6717 6.55503 22.5595L12 18.9295L17.445 22.5595C17.6154 22.6726 17.8162 22.7308 18.0207 22.7263C18.2251 22.7218 18.4232 22.6549 18.5884 22.5344C18.7536 22.414 18.878 22.2458 18.9448 22.0525C19.0116 21.8593 19.0176 21.6502 18.962 21.4535L17.133 15.0535L21.669 10.9715C21.8143 10.8407 21.9181 10.6701 21.9674 10.481C22.0168 10.2918 22.0097 10.0924 21.9469 9.90722C21.8841 9.72208 21.7685 9.5594 21.6142 9.4393C21.46 9.3192 21.2739 9.24695 21.079 9.23148L15.378 8.77748L12.911 3.31648C12.8324 3.14063 12.7045 2.99131 12.5428 2.88654C12.3812 2.78176 12.1927 2.72601 12 2.72601C11.8074 2.72601 11.6189 2.78176 11.4572 2.88654C11.2956 2.99131 11.1677 3.14063 11.089 3.31648L8.62203 8.77748L2.92103 9.23048C2.72948 9.24565 2.54636 9.31569 2.39358 9.43221C2.2408 9.54873 2.12482 9.7068 2.05952 9.88751C1.99422 10.0682 1.98236 10.2639 2.02537 10.4512C2.06838 10.6385 2.16443 10.8094 2.30203 10.9435L6.51603 15.0505ZM9.36903 10.7245C9.54752 10.7104 9.71895 10.6486 9.86533 10.5455C10.0117 10.4424 10.1277 10.3018 10.201 10.1385L12 6.15748L13.799 10.1385C13.8724 10.3018 13.9883 10.4424 14.1347 10.5455C14.2811 10.6486 14.4525 10.7104 14.631 10.7245L18.603 11.0395L15.332 13.9835C15.048 14.2395 14.935 14.6335 15.039 15.0015L16.292 19.3865L12.556 16.8955C12.392 16.7854 12.199 16.7266 12.0015 16.7266C11.804 16.7266 11.611 16.7854 11.447 16.8955L7.54303 19.4985L8.59303 14.9525C8.63153 14.7853 8.62636 14.611 8.57802 14.4464C8.52969 14.2817 8.43981 14.1323 8.31703 14.0125L5.27903 11.0505L9.36903 10.7245Z" fill="#333333"/>
</svg>
