<svg width="32" height="30" viewBox="0 0 32 30" fill="none" xmlns="http://www.w3.org/2000/svg">
<path d="M5.33333 21.4295V21.4285V21.3044C5.33333 21.8385 5.33723 22.3607 5.39325 22.8463C5.33711 22.3994 5.33286 21.9253 5.33333 21.4295ZM9.85072 26.4403C11.3422 26.7162 13.3372 26.8696 16 26.8696C18.6633 26.8696 20.6571 26.7161 22.1498 26.4402C22.1713 26.4363 22.1926 26.4323 22.2139 26.4283C22.2142 26.4282 22.2144 26.4282 22.2146 26.4281C23.6679 26.154 24.6427 25.7601 25.2981 25.272L9.85072 26.4403ZM26.6667 21.4295C26.6671 21.9383 26.6628 22.4241 26.6026 22.881C26.6626 22.3856 26.6667 21.8512 26.6667 21.3044V21.4285V21.4295Z" fill="#333333" stroke="#333333" stroke-width="2"/>
</svg>
