<svg width="32" height="30" viewBox="0 0 32 30" fill="none" xmlns="http://www.w3.org/2000/svg">
<path d="M21.3334 3.65218V8.52174M10.6667 3.65218V8.52174M5.33337 13.3913H26.6667M14.6667 18.2609H16V21.913M5.33337 8.52174C5.33337 7.876 5.61433 7.2567 6.11442 6.80009C6.61452 6.34348 7.2928 6.08696 8.00004 6.08696H24C24.7073 6.08696 25.3856 6.34348 25.8857 6.80009C26.3858 7.2567 26.6667 7.876 26.6667 8.52174V23.1304C26.6667 23.7762 26.3858 24.3955 25.8857 24.8521C25.3856 25.3087 24.7073 25.5652 24 25.5652H8.00004C7.2928 25.5652 6.61452 25.3087 6.11442 24.8521C5.61433 24.3955 5.33337 23.7762 5.33337 23.1304V8.52174Z" stroke="#333333" stroke-width="2" stroke-linecap="round" stroke-linejoin="round"/>
</svg>
