<svg width="56" height="55" viewBox="0 0 56 55" fill="none" xmlns="http://www.w3.org/2000/svg">
<path d="M28 4.58481C15.3638 4.58481 5.08334 14.8652 5.08334 27.5015C5.08334 40.1377 15.3638 50.4181 28 50.4181C40.6363 50.4181 50.9167 40.1377 50.9167 27.5015C50.9167 14.8652 40.6363 4.58481 28 4.58481ZM28 45.8348C17.8915 45.8348 9.66668 37.61 9.66668 27.5015C9.66668 17.3929 17.8915 9.16814 28 9.16814C38.1085 9.16814 46.3333 17.3929 46.3333 27.5015C46.3333 37.61 38.1085 45.8348 28 45.8348Z" fill="#F89820"/>
<path d="M30.2917 16.0431H25.7083V28.4502L33.2548 35.9967L36.4952 32.7562L30.2917 26.5527V16.0431Z" fill="#F89820"/>
</svg>
