<?xml version="1.0" encoding="UTF-8"?>
<!DOCTYPE svg PUBLIC "-//W3C//DTD SVG 1.1//EN" "http://www.w3.org/Graphics/SVG/1.1/DTD/svg11.dtd">
<svg xmlns="http://www.w3.org/2000/svg" version="1.1" width="1000px" height="1000px" style="shape-rendering:geometricPrecision; text-rendering:geometricPrecision; image-rendering:optimizeQuality; fill-rule:evenodd; clip-rule:evenodd" xmlns:xlink="http://www.w3.org/1999/xlink">
<g><path style="opacity:0.988" fill="#221f60" d="M 452.5,184.5 C 486.74,184.171 520.906,184.504 555,185.5C 588.705,260.408 622.538,335.241 656.5,410C 622.833,410.667 589.167,410.667 555.5,410C 538.004,369.517 520.504,329.017 503,288.5C 490.962,317.406 478.796,346.239 466.5,375C 508.129,466.425 549.629,557.925 591,649.5C 592.15,651.754 592.484,654.087 592,656.5C 581.443,682.615 570.609,708.615 559.5,734.5C 498.837,735.5 438.17,735.833 377.5,735.5C 377.5,710.5 377.5,685.5 377.5,660.5C 413.3,659.483 448.967,657.983 484.5,656C 444.833,563 405.167,470 365.5,377C 394.915,313.005 423.915,248.838 452.5,184.5 Z"/></g>
<g><path style="opacity:0.984" fill="#221f60" d="M 327.5,463.5 C 345.423,501.21 362.423,539.543 378.5,578.5C 356.574,630.851 334.241,683.017 311.5,735C 276.162,735.833 240.829,735.667 205.5,734.5C 245.907,644.022 286.573,553.689 327.5,463.5 Z"/></g>
<g><path style="opacity:0.987" fill="#221f60" d="M 546.5,465.5 C 591.739,465.17 636.905,465.503 682,466.5C 722.733,555.963 762.9,645.629 802.5,735.5C 766.5,735.5 730.5,735.5 694.5,735.5C 665.968,667.747 637.135,600.08 608,532.5C 587.576,531.507 567.076,531.173 546.5,531.5C 546.5,509.5 546.5,487.5 546.5,465.5 Z"/></g>
</svg>
